<mxfile host="app.diagrams.net" modified="2024-04-23T01:25:29.605Z" agent="Mozilla/5.0 (Windows NT 10.0; Win64; x64; rv:125.0) Gecko/20100101 Firefox/125.0" etag="6CFbqJUmZQmzdNmznPYp" version="24.2.7" type="github">
  <diagram name="第 1 页" id="veTfEaaRUg24bMU7oj6q">
    <mxGraphModel dx="2250" dy="539" grid="0" gridSize="10" guides="1" tooltips="1" connect="1" arrows="1" fold="1" page="0" pageScale="1" pageWidth="827" pageHeight="1169" math="0" shadow="0">
      <root>
        <mxCell id="0" />
        <mxCell id="1" parent="0" />
        <mxCell id="7KPiV920Xkv_OjgTi7J9-102" value="" style="endArrow=classic;html=1;rounded=0;fontStyle=0" edge="1" parent="1">
          <mxGeometry width="50" height="50" relative="1" as="geometry">
            <mxPoint x="-854" y="662.5" as="sourcePoint" />
            <mxPoint x="-572" y="662.5" as="targetPoint" />
          </mxGeometry>
        </mxCell>
        <mxCell id="7KPiV920Xkv_OjgTi7J9-103" value="" style="shape=flexArrow;endArrow=classic;html=1;rounded=0;fontStyle=0" edge="1" parent="1">
          <mxGeometry width="50" height="50" relative="1" as="geometry">
            <mxPoint x="-529" y="662.5" as="sourcePoint" />
            <mxPoint x="-433" y="662.5" as="targetPoint" />
          </mxGeometry>
        </mxCell>
        <mxCell id="7KPiV920Xkv_OjgTi7J9-104" value="&lt;font size=&quot;1&quot;&gt;&lt;span style=&quot;font-size: 18px;&quot;&gt;分段擦除&lt;/span&gt;&lt;/font&gt;" style="text;html=1;align=center;verticalAlign=middle;resizable=0;points=[];autosize=1;strokeColor=none;fillColor=none;fontStyle=0" vertex="1" parent="1">
          <mxGeometry x="-526" y="614.5" width="90" height="34" as="geometry" />
        </mxCell>
        <mxCell id="7KPiV920Xkv_OjgTi7J9-105" value="" style="shape=flexArrow;endArrow=classic;html=1;rounded=0;endWidth=19;endSize=2.44;width=1;fillColor=#1ba1e2;strokeColor=#006EAF;fontStyle=0" edge="1" parent="1">
          <mxGeometry width="50" height="50" relative="1" as="geometry">
            <mxPoint x="-806" y="662.5" as="sourcePoint" />
            <mxPoint x="-806" y="632.5" as="targetPoint" />
          </mxGeometry>
        </mxCell>
        <mxCell id="7KPiV920Xkv_OjgTi7J9-106" value="" style="shape=flexArrow;endArrow=classic;html=1;rounded=0;endWidth=19;endSize=2.44;width=1;fillColor=#1ba1e2;strokeColor=#006EAF;fontStyle=0" edge="1" parent="1">
          <mxGeometry width="50" height="50" relative="1" as="geometry">
            <mxPoint x="-782" y="662.5" as="sourcePoint" />
            <mxPoint x="-782" y="632.5" as="targetPoint" />
          </mxGeometry>
        </mxCell>
        <mxCell id="7KPiV920Xkv_OjgTi7J9-107" value="" style="shape=flexArrow;endArrow=classic;html=1;rounded=0;endWidth=19;endSize=2.44;width=1;fillColor=#1ba1e2;strokeColor=#006EAF;fontStyle=0" edge="1" parent="1">
          <mxGeometry width="50" height="50" relative="1" as="geometry">
            <mxPoint x="-829" y="662.5" as="sourcePoint" />
            <mxPoint x="-829" y="632.5" as="targetPoint" />
          </mxGeometry>
        </mxCell>
        <mxCell id="7KPiV920Xkv_OjgTi7J9-108" value="" style="shape=flexArrow;endArrow=classic;html=1;rounded=0;fillColor=#60a917;strokeColor=#2D7600;endWidth=19;endSize=2.44;width=1;fontStyle=0" edge="1" parent="1">
          <mxGeometry width="50" height="50" relative="1" as="geometry">
            <mxPoint x="-765" y="662.5" as="sourcePoint" />
            <mxPoint x="-765" y="692.5" as="targetPoint" />
          </mxGeometry>
        </mxCell>
        <mxCell id="7KPiV920Xkv_OjgTi7J9-109" value="" style="shape=flexArrow;endArrow=classic;html=1;rounded=0;fillColor=#60a917;strokeColor=#2D7600;endWidth=19;endSize=2.44;width=1;fontStyle=0" edge="1" parent="1">
          <mxGeometry width="50" height="50" relative="1" as="geometry">
            <mxPoint x="-742" y="662.5" as="sourcePoint" />
            <mxPoint x="-742" y="692.5" as="targetPoint" />
          </mxGeometry>
        </mxCell>
        <mxCell id="7KPiV920Xkv_OjgTi7J9-110" value="" style="shape=flexArrow;endArrow=classic;html=1;rounded=0;fillColor=#60a917;strokeColor=#2D7600;endWidth=19;endSize=2.44;width=1;fontStyle=0" edge="1" parent="1">
          <mxGeometry width="50" height="50" relative="1" as="geometry">
            <mxPoint x="-721" y="662.5" as="sourcePoint" />
            <mxPoint x="-721" y="692.5" as="targetPoint" />
          </mxGeometry>
        </mxCell>
        <mxCell id="7KPiV920Xkv_OjgTi7J9-111" value="" style="shape=flexArrow;endArrow=classic;html=1;rounded=0;endWidth=19;endSize=2.44;width=1;fillColor=#1ba1e2;strokeColor=#006EAF;fontStyle=0" edge="1" parent="1">
          <mxGeometry width="50" height="50" relative="1" as="geometry">
            <mxPoint x="-701" y="662.5" as="sourcePoint" />
            <mxPoint x="-701" y="632.5" as="targetPoint" />
          </mxGeometry>
        </mxCell>
        <mxCell id="7KPiV920Xkv_OjgTi7J9-112" value="" style="shape=flexArrow;endArrow=classic;html=1;rounded=0;fillColor=#60a917;strokeColor=#2D7600;endWidth=19;endSize=2.44;width=1;fontStyle=0" edge="1" parent="1">
          <mxGeometry width="50" height="50" relative="1" as="geometry">
            <mxPoint x="-680" y="661.5" as="sourcePoint" />
            <mxPoint x="-680" y="691.5" as="targetPoint" />
          </mxGeometry>
        </mxCell>
        <mxCell id="7KPiV920Xkv_OjgTi7J9-113" value="" style="shape=flexArrow;endArrow=classic;html=1;rounded=0;fillColor=#60a917;strokeColor=#2D7600;endWidth=19;endSize=2.44;width=1;fontStyle=0" edge="1" parent="1">
          <mxGeometry width="50" height="50" relative="1" as="geometry">
            <mxPoint x="-658" y="662.5" as="sourcePoint" />
            <mxPoint x="-658" y="692.5" as="targetPoint" />
          </mxGeometry>
        </mxCell>
        <mxCell id="7KPiV920Xkv_OjgTi7J9-114" value="" style="shape=flexArrow;endArrow=classic;html=1;rounded=0;endWidth=19;endSize=2.44;width=1;fillColor=#1ba1e2;strokeColor=#006EAF;fontStyle=0" edge="1" parent="1">
          <mxGeometry width="50" height="50" relative="1" as="geometry">
            <mxPoint x="-637" y="662.5" as="sourcePoint" />
            <mxPoint x="-637" y="632.5" as="targetPoint" />
          </mxGeometry>
        </mxCell>
        <mxCell id="7KPiV920Xkv_OjgTi7J9-115" value="&lt;font size=&quot;1&quot;&gt;&lt;span&gt;&lt;font style=&quot;font-size: 18px;&quot;&gt;方向序列&lt;/font&gt;&lt;/span&gt;&lt;/font&gt;" style="text;html=1;align=center;verticalAlign=middle;resizable=0;points=[];autosize=1;strokeColor=none;fillColor=none;fontStyle=0" vertex="1" parent="1">
          <mxGeometry x="-768" y="576.5" width="90" height="34" as="geometry" />
        </mxCell>
        <mxCell id="7KPiV920Xkv_OjgTi7J9-116" value="&lt;font size=&quot;1&quot;&gt;&lt;span&gt;&lt;font style=&quot;font-size: 18px;&quot;&gt;标签&lt;/font&gt;&lt;/span&gt;&lt;/font&gt;" style="text;html=1;align=center;verticalAlign=middle;resizable=0;points=[];autosize=1;strokeColor=none;fillColor=none;fontStyle=0" vertex="1" parent="1">
          <mxGeometry x="-932" y="576.5" width="54" height="34" as="geometry" />
        </mxCell>
        <mxCell id="7KPiV920Xkv_OjgTi7J9-117" value="&lt;div style=&quot;font-size: 17px;&quot;&gt;&lt;font style=&quot;font-size: 17px;&quot;&gt;&lt;span&gt;&lt;font style=&quot;font-size: 17px;&quot;&gt;0&lt;/font&gt;&lt;/span&gt;&lt;/font&gt;&lt;/div&gt;&lt;div style=&quot;font-size: 17px;&quot;&gt;&lt;font style=&quot;font-size: 17px;&quot;&gt;&lt;span&gt;&lt;font style=&quot;font-size: 17px;&quot;&gt;0&lt;br&gt;&lt;/font&gt;&lt;/span&gt;&lt;/font&gt;&lt;/div&gt;&lt;div style=&quot;font-size: 17px;&quot;&gt;&lt;font style=&quot;font-size: 17px;&quot;&gt;&lt;span&gt;&lt;font style=&quot;font-size: 17px;&quot;&gt;1&lt;/font&gt;&lt;/span&gt;&lt;/font&gt;&lt;/div&gt;&lt;div style=&quot;font-size: 17px;&quot;&gt;&lt;font style=&quot;font-size: 17px;&quot;&gt;&lt;span&gt;&lt;font style=&quot;font-size: 17px;&quot;&gt;&lt;font style=&quot;font-size: 17px;&quot;&gt;0&lt;/font&gt;&lt;br&gt;&lt;/font&gt;&lt;/span&gt;&lt;/font&gt;&lt;/div&gt;" style="rounded=0;whiteSpace=wrap;html=1;fontStyle=0" vertex="1" parent="1">
          <mxGeometry x="-922.5" y="789.5" width="34" height="90" as="geometry" />
        </mxCell>
        <mxCell id="7KPiV920Xkv_OjgTi7J9-118" value="" style="shape=umlDestroy;whiteSpace=wrap;html=1;strokeWidth=3;targetShapes=umlLifeline;fillColor=#e51400;fontColor=#ffffff;strokeColor=#B20000;fontStyle=0" vertex="1" parent="1">
          <mxGeometry x="-643" y="612.5" width="10" height="14" as="geometry" />
        </mxCell>
        <mxCell id="7KPiV920Xkv_OjgTi7J9-119" value="" style="shape=umlDestroy;whiteSpace=wrap;html=1;strokeWidth=3;targetShapes=umlLifeline;fillColor=#e51400;fontColor=#ffffff;strokeColor=#B20000;fontStyle=0" vertex="1" parent="1">
          <mxGeometry x="-789" y="615.5" width="10" height="14" as="geometry" />
        </mxCell>
        <mxCell id="7KPiV920Xkv_OjgTi7J9-120" value="" style="shape=umlDestroy;whiteSpace=wrap;html=1;strokeWidth=3;targetShapes=umlLifeline;fillColor=#e51400;fontColor=#ffffff;strokeColor=#B20000;fontStyle=0" vertex="1" parent="1">
          <mxGeometry x="-726" y="695.5" width="10" height="14" as="geometry" />
        </mxCell>
        <mxCell id="7KPiV920Xkv_OjgTi7J9-121" value="" style="endArrow=classic;html=1;rounded=0;fontStyle=0" edge="1" parent="1">
          <mxGeometry width="50" height="50" relative="1" as="geometry">
            <mxPoint x="-338" y="662.5" as="sourcePoint" />
            <mxPoint x="-56" y="662.5" as="targetPoint" />
          </mxGeometry>
        </mxCell>
        <mxCell id="7KPiV920Xkv_OjgTi7J9-122" value="" style="shape=flexArrow;endArrow=classic;html=1;rounded=0;endWidth=19;endSize=2.44;width=1;fillColor=#1ba1e2;strokeColor=#006EAF;fontStyle=0" edge="1" parent="1">
          <mxGeometry width="50" height="50" relative="1" as="geometry">
            <mxPoint x="-290" y="662.5" as="sourcePoint" />
            <mxPoint x="-290" y="632.5" as="targetPoint" />
          </mxGeometry>
        </mxCell>
        <mxCell id="7KPiV920Xkv_OjgTi7J9-123" value="" style="shape=flexArrow;endArrow=classic;html=1;rounded=0;endWidth=19;endSize=2.44;width=1;fillColor=#1ba1e2;strokeColor=#006EAF;fontStyle=0" edge="1" parent="1">
          <mxGeometry width="50" height="50" relative="1" as="geometry">
            <mxPoint x="-313" y="662.5" as="sourcePoint" />
            <mxPoint x="-313" y="632.5" as="targetPoint" />
          </mxGeometry>
        </mxCell>
        <mxCell id="7KPiV920Xkv_OjgTi7J9-124" value="" style="shape=flexArrow;endArrow=classic;html=1;rounded=0;fillColor=#60a917;strokeColor=#2D7600;endWidth=19;endSize=2.44;width=1;fontStyle=0" edge="1" parent="1">
          <mxGeometry width="50" height="50" relative="1" as="geometry">
            <mxPoint x="-249" y="662.5" as="sourcePoint" />
            <mxPoint x="-249" y="692.5" as="targetPoint" />
          </mxGeometry>
        </mxCell>
        <mxCell id="7KPiV920Xkv_OjgTi7J9-125" value="" style="shape=flexArrow;endArrow=classic;html=1;rounded=0;fillColor=#60a917;strokeColor=#2D7600;endWidth=19;endSize=2.44;width=1;fontStyle=0" edge="1" parent="1">
          <mxGeometry width="50" height="50" relative="1" as="geometry">
            <mxPoint x="-226" y="662.5" as="sourcePoint" />
            <mxPoint x="-226" y="692.5" as="targetPoint" />
          </mxGeometry>
        </mxCell>
        <mxCell id="7KPiV920Xkv_OjgTi7J9-126" value="" style="shape=flexArrow;endArrow=classic;html=1;rounded=0;endWidth=19;endSize=2.44;width=1;fillColor=#1ba1e2;strokeColor=#006EAF;fontStyle=0" edge="1" parent="1">
          <mxGeometry width="50" height="50" relative="1" as="geometry">
            <mxPoint x="-185" y="662.5" as="sourcePoint" />
            <mxPoint x="-185" y="632.5" as="targetPoint" />
          </mxGeometry>
        </mxCell>
        <mxCell id="7KPiV920Xkv_OjgTi7J9-127" value="" style="shape=flexArrow;endArrow=classic;html=1;rounded=0;fillColor=#60a917;strokeColor=#2D7600;endWidth=19;endSize=2.44;width=1;fontStyle=0" edge="1" parent="1">
          <mxGeometry width="50" height="50" relative="1" as="geometry">
            <mxPoint x="-164" y="661.5" as="sourcePoint" />
            <mxPoint x="-164" y="691.5" as="targetPoint" />
          </mxGeometry>
        </mxCell>
        <mxCell id="7KPiV920Xkv_OjgTi7J9-128" value="" style="shape=flexArrow;endArrow=classic;html=1;rounded=0;fillColor=#60a917;strokeColor=#2D7600;endWidth=19;endSize=2.44;width=1;fontStyle=0" edge="1" parent="1">
          <mxGeometry width="50" height="50" relative="1" as="geometry">
            <mxPoint x="-142" y="662.5" as="sourcePoint" />
            <mxPoint x="-142" y="692.5" as="targetPoint" />
          </mxGeometry>
        </mxCell>
        <mxCell id="7KPiV920Xkv_OjgTi7J9-129" value="&lt;font size=&quot;1&quot;&gt;&lt;span&gt;&lt;font style=&quot;font-size: 18px;&quot;&gt;方向序列&lt;/font&gt;&lt;/span&gt;&lt;/font&gt;" style="text;html=1;align=center;verticalAlign=middle;resizable=0;points=[];autosize=1;strokeColor=none;fillColor=none;fontStyle=0" vertex="1" parent="1">
          <mxGeometry x="-252" y="576.5" width="90" height="34" as="geometry" />
        </mxCell>
        <mxCell id="7KPiV920Xkv_OjgTi7J9-130" value="&lt;font size=&quot;1&quot;&gt;&lt;span&gt;&lt;font style=&quot;font-size: 18px;&quot;&gt;标签&lt;/font&gt;&lt;/span&gt;&lt;/font&gt;" style="text;html=1;align=center;verticalAlign=middle;resizable=0;points=[];autosize=1;strokeColor=none;fillColor=none;fontStyle=0" vertex="1" parent="1">
          <mxGeometry x="-416" y="576.5" width="54" height="34" as="geometry" />
        </mxCell>
        <mxCell id="7KPiV920Xkv_OjgTi7J9-131" value="&lt;div style=&quot;font-size: 17px;&quot;&gt;&lt;font style=&quot;font-size: 17px;&quot;&gt;&lt;span&gt;&lt;font style=&quot;font-size: 17px;&quot;&gt;0&lt;/font&gt;&lt;/span&gt;&lt;/font&gt;&lt;/div&gt;&lt;div style=&quot;font-size: 17px;&quot;&gt;&lt;font style=&quot;font-size: 17px;&quot;&gt;&lt;span&gt;&lt;font style=&quot;font-size: 17px;&quot;&gt;0&lt;br&gt;&lt;/font&gt;&lt;/span&gt;&lt;/font&gt;&lt;/div&gt;&lt;div style=&quot;font-size: 17px;&quot;&gt;&lt;font style=&quot;font-size: 17px;&quot;&gt;&lt;span&gt;&lt;font style=&quot;font-size: 17px;&quot;&gt;1&lt;/font&gt;&lt;/span&gt;&lt;/font&gt;&lt;/div&gt;&lt;div style=&quot;font-size: 17px;&quot;&gt;&lt;font style=&quot;font-size: 17px;&quot;&gt;&lt;span&gt;&lt;font style=&quot;font-size: 17px;&quot;&gt;&lt;font style=&quot;font-size: 17px;&quot;&gt;0&lt;/font&gt;&lt;br&gt;&lt;/font&gt;&lt;/span&gt;&lt;/font&gt;&lt;/div&gt;" style="rounded=0;whiteSpace=wrap;html=1;fontStyle=0" vertex="1" parent="1">
          <mxGeometry x="-406.5" y="615.5" width="34" height="90" as="geometry" />
        </mxCell>
        <mxCell id="7KPiV920Xkv_OjgTi7J9-132" value="" style="endArrow=classic;html=1;rounded=0;fontStyle=0" edge="1" parent="1">
          <mxGeometry width="50" height="50" relative="1" as="geometry">
            <mxPoint x="-854" y="492.5" as="sourcePoint" />
            <mxPoint x="-572" y="492.5" as="targetPoint" />
          </mxGeometry>
        </mxCell>
        <mxCell id="7KPiV920Xkv_OjgTi7J9-133" value="" style="shape=flexArrow;endArrow=classic;html=1;rounded=0;fontStyle=0" edge="1" parent="1">
          <mxGeometry width="50" height="50" relative="1" as="geometry">
            <mxPoint x="-529" y="492.5" as="sourcePoint" />
            <mxPoint x="-433" y="492.5" as="targetPoint" />
          </mxGeometry>
        </mxCell>
        <mxCell id="7KPiV920Xkv_OjgTi7J9-134" value="&lt;font size=&quot;1&quot;&gt;&lt;span style=&quot;font-size: 18px;&quot;&gt;连续擦除&lt;/span&gt;&lt;/font&gt;" style="text;html=1;align=center;verticalAlign=middle;resizable=0;points=[];autosize=1;strokeColor=none;fillColor=none;fontStyle=0" vertex="1" parent="1">
          <mxGeometry x="-525" y="444.5" width="90" height="34" as="geometry" />
        </mxCell>
        <mxCell id="7KPiV920Xkv_OjgTi7J9-135" value="" style="shape=flexArrow;endArrow=classic;html=1;rounded=0;endWidth=19;endSize=2.44;width=1;fillColor=#1ba1e2;strokeColor=#006EAF;fontStyle=0" edge="1" parent="1">
          <mxGeometry width="50" height="50" relative="1" as="geometry">
            <mxPoint x="-806" y="492.5" as="sourcePoint" />
            <mxPoint x="-806" y="462.5" as="targetPoint" />
          </mxGeometry>
        </mxCell>
        <mxCell id="7KPiV920Xkv_OjgTi7J9-136" value="" style="shape=flexArrow;endArrow=classic;html=1;rounded=0;endWidth=19;endSize=2.44;width=1;fillColor=#1ba1e2;strokeColor=#006EAF;fontStyle=0" edge="1" parent="1">
          <mxGeometry width="50" height="50" relative="1" as="geometry">
            <mxPoint x="-782" y="492.5" as="sourcePoint" />
            <mxPoint x="-782" y="462.5" as="targetPoint" />
          </mxGeometry>
        </mxCell>
        <mxCell id="7KPiV920Xkv_OjgTi7J9-137" value="" style="shape=flexArrow;endArrow=classic;html=1;rounded=0;endWidth=19;endSize=2.44;width=1;fillColor=#1ba1e2;strokeColor=#006EAF;fontStyle=0" edge="1" parent="1">
          <mxGeometry width="50" height="50" relative="1" as="geometry">
            <mxPoint x="-829" y="492.5" as="sourcePoint" />
            <mxPoint x="-829" y="462.5" as="targetPoint" />
          </mxGeometry>
        </mxCell>
        <mxCell id="7KPiV920Xkv_OjgTi7J9-138" value="" style="shape=flexArrow;endArrow=classic;html=1;rounded=0;fillColor=#60a917;strokeColor=#2D7600;endWidth=19;endSize=2.44;width=1;fontStyle=0" edge="1" parent="1">
          <mxGeometry width="50" height="50" relative="1" as="geometry">
            <mxPoint x="-765" y="492.5" as="sourcePoint" />
            <mxPoint x="-765" y="522.5" as="targetPoint" />
          </mxGeometry>
        </mxCell>
        <mxCell id="7KPiV920Xkv_OjgTi7J9-139" value="" style="shape=flexArrow;endArrow=classic;html=1;rounded=0;fillColor=#60a917;strokeColor=#2D7600;endWidth=19;endSize=2.44;width=1;fontStyle=0" edge="1" parent="1">
          <mxGeometry width="50" height="50" relative="1" as="geometry">
            <mxPoint x="-742" y="492.5" as="sourcePoint" />
            <mxPoint x="-742" y="522.5" as="targetPoint" />
          </mxGeometry>
        </mxCell>
        <mxCell id="7KPiV920Xkv_OjgTi7J9-140" value="" style="shape=flexArrow;endArrow=classic;html=1;rounded=0;fillColor=#60a917;strokeColor=#2D7600;endWidth=19;endSize=2.44;width=1;fontStyle=0" edge="1" parent="1">
          <mxGeometry width="50" height="50" relative="1" as="geometry">
            <mxPoint x="-721" y="492.5" as="sourcePoint" />
            <mxPoint x="-721" y="522.5" as="targetPoint" />
          </mxGeometry>
        </mxCell>
        <mxCell id="7KPiV920Xkv_OjgTi7J9-141" value="" style="shape=flexArrow;endArrow=classic;html=1;rounded=0;endWidth=19;endSize=2.44;width=1;fillColor=#1ba1e2;strokeColor=#006EAF;fontStyle=0" edge="1" parent="1">
          <mxGeometry width="50" height="50" relative="1" as="geometry">
            <mxPoint x="-701" y="492.5" as="sourcePoint" />
            <mxPoint x="-701" y="462.5" as="targetPoint" />
          </mxGeometry>
        </mxCell>
        <mxCell id="7KPiV920Xkv_OjgTi7J9-142" value="" style="shape=flexArrow;endArrow=classic;html=1;rounded=0;fillColor=#60a917;strokeColor=#2D7600;endWidth=19;endSize=2.44;width=1;fontStyle=0" edge="1" parent="1">
          <mxGeometry width="50" height="50" relative="1" as="geometry">
            <mxPoint x="-680" y="491.5" as="sourcePoint" />
            <mxPoint x="-680" y="521.5" as="targetPoint" />
          </mxGeometry>
        </mxCell>
        <mxCell id="7KPiV920Xkv_OjgTi7J9-143" value="" style="shape=flexArrow;endArrow=classic;html=1;rounded=0;fillColor=#60a917;strokeColor=#2D7600;endWidth=19;endSize=2.44;width=1;fontStyle=0" edge="1" parent="1">
          <mxGeometry width="50" height="50" relative="1" as="geometry">
            <mxPoint x="-658" y="492.5" as="sourcePoint" />
            <mxPoint x="-658" y="522.5" as="targetPoint" />
          </mxGeometry>
        </mxCell>
        <mxCell id="7KPiV920Xkv_OjgTi7J9-144" value="" style="shape=flexArrow;endArrow=classic;html=1;rounded=0;endWidth=19;endSize=2.44;width=1;fillColor=#1ba1e2;strokeColor=#006EAF;fontStyle=0" edge="1" parent="1">
          <mxGeometry width="50" height="50" relative="1" as="geometry">
            <mxPoint x="-637" y="492.5" as="sourcePoint" />
            <mxPoint x="-637" y="462.5" as="targetPoint" />
          </mxGeometry>
        </mxCell>
        <mxCell id="7KPiV920Xkv_OjgTi7J9-145" value="&lt;font size=&quot;1&quot;&gt;&lt;span&gt;&lt;font style=&quot;font-size: 18px;&quot;&gt;方向序列&lt;/font&gt;&lt;/span&gt;&lt;/font&gt;" style="text;html=1;align=center;verticalAlign=middle;resizable=0;points=[];autosize=1;strokeColor=none;fillColor=none;fontStyle=0" vertex="1" parent="1">
          <mxGeometry x="-768" y="406.5" width="90" height="34" as="geometry" />
        </mxCell>
        <mxCell id="7KPiV920Xkv_OjgTi7J9-146" value="&lt;font size=&quot;1&quot;&gt;&lt;span&gt;&lt;font style=&quot;font-size: 18px;&quot;&gt;标签&lt;/font&gt;&lt;/span&gt;&lt;/font&gt;" style="text;html=1;align=center;verticalAlign=middle;resizable=0;points=[];autosize=1;strokeColor=none;fillColor=none;fontStyle=0" vertex="1" parent="1">
          <mxGeometry x="-932" y="406.5" width="54" height="34" as="geometry" />
        </mxCell>
        <mxCell id="7KPiV920Xkv_OjgTi7J9-147" value="&lt;div style=&quot;font-size: 17px;&quot;&gt;&lt;font style=&quot;font-size: 17px;&quot;&gt;&lt;span&gt;&lt;font style=&quot;font-size: 17px;&quot;&gt;0&lt;/font&gt;&lt;/span&gt;&lt;/font&gt;&lt;/div&gt;&lt;div style=&quot;font-size: 17px;&quot;&gt;&lt;font style=&quot;font-size: 17px;&quot;&gt;&lt;span&gt;&lt;font style=&quot;font-size: 17px;&quot;&gt;0&lt;br&gt;&lt;/font&gt;&lt;/span&gt;&lt;/font&gt;&lt;/div&gt;&lt;div style=&quot;font-size: 17px;&quot;&gt;&lt;font style=&quot;font-size: 17px;&quot;&gt;&lt;span&gt;&lt;font style=&quot;font-size: 17px;&quot;&gt;1&lt;/font&gt;&lt;/span&gt;&lt;/font&gt;&lt;/div&gt;&lt;div style=&quot;font-size: 17px;&quot;&gt;&lt;font style=&quot;font-size: 17px;&quot;&gt;&lt;span&gt;&lt;font style=&quot;font-size: 17px;&quot;&gt;&lt;font style=&quot;font-size: 17px;&quot;&gt;0&lt;/font&gt;&lt;br&gt;&lt;/font&gt;&lt;/span&gt;&lt;/font&gt;&lt;/div&gt;" style="rounded=0;whiteSpace=wrap;html=1;fontStyle=0" vertex="1" parent="1">
          <mxGeometry x="-922.5" y="445.5" width="34" height="90" as="geometry" />
        </mxCell>
        <mxCell id="7KPiV920Xkv_OjgTi7J9-148" value="" style="shape=umlDestroy;whiteSpace=wrap;html=1;strokeWidth=3;targetShapes=umlLifeline;fillColor=#e51400;fontColor=#ffffff;strokeColor=#B20000;fontStyle=0" vertex="1" parent="1">
          <mxGeometry x="-749" y="525.5" width="10" height="14" as="geometry" />
        </mxCell>
        <mxCell id="7KPiV920Xkv_OjgTi7J9-149" value="" style="shape=umlDestroy;whiteSpace=wrap;html=1;strokeWidth=3;targetShapes=umlLifeline;fillColor=#e51400;fontColor=#ffffff;strokeColor=#B20000;fontStyle=0" vertex="1" parent="1">
          <mxGeometry x="-789" y="445.5" width="10" height="14" as="geometry" />
        </mxCell>
        <mxCell id="7KPiV920Xkv_OjgTi7J9-150" value="" style="endArrow=classic;html=1;rounded=0;fontStyle=0" edge="1" parent="1">
          <mxGeometry width="50" height="50" relative="1" as="geometry">
            <mxPoint x="-338" y="492.5" as="sourcePoint" />
            <mxPoint x="-56" y="492.5" as="targetPoint" />
          </mxGeometry>
        </mxCell>
        <mxCell id="7KPiV920Xkv_OjgTi7J9-151" value="" style="shape=flexArrow;endArrow=classic;html=1;rounded=0;endWidth=19;endSize=2.44;width=1;fillColor=#1ba1e2;strokeColor=#006EAF;fontStyle=0" edge="1" parent="1">
          <mxGeometry width="50" height="50" relative="1" as="geometry">
            <mxPoint x="-290" y="492.5" as="sourcePoint" />
            <mxPoint x="-290" y="462.5" as="targetPoint" />
          </mxGeometry>
        </mxCell>
        <mxCell id="7KPiV920Xkv_OjgTi7J9-152" value="" style="shape=flexArrow;endArrow=classic;html=1;rounded=0;endWidth=19;endSize=2.44;width=1;fillColor=#1ba1e2;strokeColor=#006EAF;fontStyle=0" edge="1" parent="1">
          <mxGeometry width="50" height="50" relative="1" as="geometry">
            <mxPoint x="-313" y="492.5" as="sourcePoint" />
            <mxPoint x="-313" y="462.5" as="targetPoint" />
          </mxGeometry>
        </mxCell>
        <mxCell id="7KPiV920Xkv_OjgTi7J9-153" value="" style="shape=flexArrow;endArrow=classic;html=1;rounded=0;fillColor=#60a917;strokeColor=#2D7600;endWidth=19;endSize=2.44;width=1;fontStyle=0" edge="1" parent="1">
          <mxGeometry width="50" height="50" relative="1" as="geometry">
            <mxPoint x="-205" y="492.5" as="sourcePoint" />
            <mxPoint x="-205" y="522.5" as="targetPoint" />
          </mxGeometry>
        </mxCell>
        <mxCell id="7KPiV920Xkv_OjgTi7J9-154" value="" style="shape=flexArrow;endArrow=classic;html=1;rounded=0;endWidth=19;endSize=2.44;width=1;fillColor=#1ba1e2;strokeColor=#006EAF;fontStyle=0" edge="1" parent="1">
          <mxGeometry width="50" height="50" relative="1" as="geometry">
            <mxPoint x="-185" y="492.5" as="sourcePoint" />
            <mxPoint x="-185" y="462.5" as="targetPoint" />
          </mxGeometry>
        </mxCell>
        <mxCell id="7KPiV920Xkv_OjgTi7J9-155" value="" style="shape=flexArrow;endArrow=classic;html=1;rounded=0;fillColor=#60a917;strokeColor=#2D7600;endWidth=19;endSize=2.44;width=1;fontStyle=0" edge="1" parent="1">
          <mxGeometry width="50" height="50" relative="1" as="geometry">
            <mxPoint x="-164" y="491.5" as="sourcePoint" />
            <mxPoint x="-164" y="521.5" as="targetPoint" />
          </mxGeometry>
        </mxCell>
        <mxCell id="7KPiV920Xkv_OjgTi7J9-156" value="" style="shape=flexArrow;endArrow=classic;html=1;rounded=0;fillColor=#60a917;strokeColor=#2D7600;endWidth=19;endSize=2.44;width=1;fontStyle=0" edge="1" parent="1">
          <mxGeometry width="50" height="50" relative="1" as="geometry">
            <mxPoint x="-142" y="492.5" as="sourcePoint" />
            <mxPoint x="-142" y="522.5" as="targetPoint" />
          </mxGeometry>
        </mxCell>
        <mxCell id="7KPiV920Xkv_OjgTi7J9-157" value="" style="shape=flexArrow;endArrow=classic;html=1;rounded=0;endWidth=19;endSize=2.44;width=1;fillColor=#1ba1e2;strokeColor=#006EAF;fontStyle=0" edge="1" parent="1">
          <mxGeometry width="50" height="50" relative="1" as="geometry">
            <mxPoint x="-121" y="492.5" as="sourcePoint" />
            <mxPoint x="-121" y="462.5" as="targetPoint" />
          </mxGeometry>
        </mxCell>
        <mxCell id="7KPiV920Xkv_OjgTi7J9-158" value="&lt;font size=&quot;1&quot;&gt;&lt;span&gt;&lt;font style=&quot;font-size: 18px;&quot;&gt;方向序列&lt;/font&gt;&lt;/span&gt;&lt;/font&gt;" style="text;html=1;align=center;verticalAlign=middle;resizable=0;points=[];autosize=1;strokeColor=none;fillColor=none;fontStyle=0" vertex="1" parent="1">
          <mxGeometry x="-252" y="406.5" width="90" height="34" as="geometry" />
        </mxCell>
        <mxCell id="7KPiV920Xkv_OjgTi7J9-159" value="&lt;font size=&quot;1&quot;&gt;&lt;span&gt;&lt;font style=&quot;font-size: 18px;&quot;&gt;标签&lt;/font&gt;&lt;/span&gt;&lt;/font&gt;" style="text;html=1;align=center;verticalAlign=middle;resizable=0;points=[];autosize=1;strokeColor=none;fillColor=none;fontStyle=0" vertex="1" parent="1">
          <mxGeometry x="-416" y="406.5" width="54" height="34" as="geometry" />
        </mxCell>
        <mxCell id="7KPiV920Xkv_OjgTi7J9-160" value="&lt;div style=&quot;font-size: 17px;&quot;&gt;&lt;font style=&quot;font-size: 17px;&quot;&gt;&lt;span&gt;&lt;font style=&quot;font-size: 17px;&quot;&gt;0&lt;/font&gt;&lt;/span&gt;&lt;/font&gt;&lt;/div&gt;&lt;div style=&quot;font-size: 17px;&quot;&gt;&lt;font style=&quot;font-size: 17px;&quot;&gt;&lt;span&gt;&lt;font style=&quot;font-size: 17px;&quot;&gt;0&lt;br&gt;&lt;/font&gt;&lt;/span&gt;&lt;/font&gt;&lt;/div&gt;&lt;div style=&quot;font-size: 17px;&quot;&gt;&lt;font style=&quot;font-size: 17px;&quot;&gt;&lt;span&gt;&lt;font style=&quot;font-size: 17px;&quot;&gt;1&lt;/font&gt;&lt;/span&gt;&lt;/font&gt;&lt;/div&gt;&lt;div style=&quot;font-size: 17px;&quot;&gt;&lt;font style=&quot;font-size: 17px;&quot;&gt;&lt;span&gt;&lt;font style=&quot;font-size: 17px;&quot;&gt;&lt;font style=&quot;font-size: 17px;&quot;&gt;0&lt;/font&gt;&lt;br&gt;&lt;/font&gt;&lt;/span&gt;&lt;/font&gt;&lt;/div&gt;" style="rounded=0;whiteSpace=wrap;html=1;fontStyle=0" vertex="1" parent="1">
          <mxGeometry x="-406.5" y="445.5" width="34" height="90" as="geometry" />
        </mxCell>
        <mxCell id="7KPiV920Xkv_OjgTi7J9-161" value="" style="endArrow=classic;html=1;rounded=0;fontStyle=0" edge="1" parent="1">
          <mxGeometry width="50" height="50" relative="1" as="geometry">
            <mxPoint x="-854" y="838.5" as="sourcePoint" />
            <mxPoint x="-572" y="838.5" as="targetPoint" />
          </mxGeometry>
        </mxCell>
        <mxCell id="7KPiV920Xkv_OjgTi7J9-162" value="" style="shape=flexArrow;endArrow=classic;html=1;rounded=0;fontStyle=0" edge="1" parent="1">
          <mxGeometry width="50" height="50" relative="1" as="geometry">
            <mxPoint x="-529" y="838.5" as="sourcePoint" />
            <mxPoint x="-433" y="838.5" as="targetPoint" />
          </mxGeometry>
        </mxCell>
        <mxCell id="7KPiV920Xkv_OjgTi7J9-163" value="&lt;font size=&quot;1&quot;&gt;&lt;span style=&quot;font-size: 18px;&quot;&gt;旋转：后旋两步&lt;/span&gt;&lt;/font&gt;" style="text;html=1;align=center;verticalAlign=middle;resizable=0;points=[];autosize=1;strokeColor=none;fillColor=none;fontStyle=0" vertex="1" parent="1">
          <mxGeometry x="-552" y="790.5" width="144" height="34" as="geometry" />
        </mxCell>
        <mxCell id="7KPiV920Xkv_OjgTi7J9-164" value="" style="shape=flexArrow;endArrow=classic;html=1;rounded=0;endWidth=19;endSize=2.44;width=1;fillColor=#1ba1e2;strokeColor=#006EAF;fontStyle=0" edge="1" parent="1">
          <mxGeometry width="50" height="50" relative="1" as="geometry">
            <mxPoint x="-806" y="838.5" as="sourcePoint" />
            <mxPoint x="-806" y="808.5" as="targetPoint" />
          </mxGeometry>
        </mxCell>
        <mxCell id="7KPiV920Xkv_OjgTi7J9-165" value="" style="shape=flexArrow;endArrow=classic;html=1;rounded=0;endWidth=19;endSize=2.44;width=1;fillColor=#1ba1e2;strokeColor=#006EAF;fontStyle=0" edge="1" parent="1">
          <mxGeometry width="50" height="50" relative="1" as="geometry">
            <mxPoint x="-782" y="838.5" as="sourcePoint" />
            <mxPoint x="-782" y="808.5" as="targetPoint" />
          </mxGeometry>
        </mxCell>
        <mxCell id="7KPiV920Xkv_OjgTi7J9-166" value="" style="shape=flexArrow;endArrow=classic;html=1;rounded=0;endWidth=19;endSize=2.44;width=1;fillColor=#1ba1e2;strokeColor=#006EAF;fontStyle=0" edge="1" parent="1">
          <mxGeometry width="50" height="50" relative="1" as="geometry">
            <mxPoint x="-829" y="838.5" as="sourcePoint" />
            <mxPoint x="-829" y="808.5" as="targetPoint" />
          </mxGeometry>
        </mxCell>
        <mxCell id="7KPiV920Xkv_OjgTi7J9-167" value="" style="shape=flexArrow;endArrow=classic;html=1;rounded=0;fillColor=#60a917;strokeColor=#2D7600;endWidth=19;endSize=2.44;width=1;fontStyle=0" edge="1" parent="1">
          <mxGeometry width="50" height="50" relative="1" as="geometry">
            <mxPoint x="-765" y="838.5" as="sourcePoint" />
            <mxPoint x="-765" y="868.5" as="targetPoint" />
          </mxGeometry>
        </mxCell>
        <mxCell id="7KPiV920Xkv_OjgTi7J9-168" value="" style="shape=flexArrow;endArrow=classic;html=1;rounded=0;fillColor=#60a917;strokeColor=#2D7600;endWidth=19;endSize=2.44;width=1;fontStyle=0" edge="1" parent="1">
          <mxGeometry width="50" height="50" relative="1" as="geometry">
            <mxPoint x="-742" y="838.5" as="sourcePoint" />
            <mxPoint x="-742" y="868.5" as="targetPoint" />
          </mxGeometry>
        </mxCell>
        <mxCell id="7KPiV920Xkv_OjgTi7J9-169" value="" style="shape=flexArrow;endArrow=classic;html=1;rounded=0;fillColor=#60a917;strokeColor=#2D7600;endWidth=19;endSize=2.44;width=1;fontStyle=0" edge="1" parent="1">
          <mxGeometry width="50" height="50" relative="1" as="geometry">
            <mxPoint x="-721" y="838.5" as="sourcePoint" />
            <mxPoint x="-721" y="868.5" as="targetPoint" />
          </mxGeometry>
        </mxCell>
        <mxCell id="7KPiV920Xkv_OjgTi7J9-170" value="" style="shape=flexArrow;endArrow=classic;html=1;rounded=0;endWidth=19;endSize=2.44;width=1;fillColor=#1ba1e2;strokeColor=#006EAF;fontStyle=0" edge="1" parent="1">
          <mxGeometry width="50" height="50" relative="1" as="geometry">
            <mxPoint x="-701" y="838.5" as="sourcePoint" />
            <mxPoint x="-701" y="808.5" as="targetPoint" />
          </mxGeometry>
        </mxCell>
        <mxCell id="7KPiV920Xkv_OjgTi7J9-171" value="" style="shape=flexArrow;endArrow=classic;html=1;rounded=0;fillColor=#60a917;strokeColor=#2D7600;endWidth=19;endSize=2.44;width=1;fontStyle=0" edge="1" parent="1">
          <mxGeometry width="50" height="50" relative="1" as="geometry">
            <mxPoint x="-680" y="837.5" as="sourcePoint" />
            <mxPoint x="-680" y="867.5" as="targetPoint" />
          </mxGeometry>
        </mxCell>
        <mxCell id="7KPiV920Xkv_OjgTi7J9-172" value="" style="shape=flexArrow;endArrow=classic;html=1;rounded=0;fillColor=#60a917;strokeColor=#2D7600;endWidth=19;endSize=2.44;width=1;fontStyle=0" edge="1" parent="1">
          <mxGeometry width="50" height="50" relative="1" as="geometry">
            <mxPoint x="-658" y="838.5" as="sourcePoint" />
            <mxPoint x="-658" y="868.5" as="targetPoint" />
          </mxGeometry>
        </mxCell>
        <mxCell id="7KPiV920Xkv_OjgTi7J9-173" value="" style="shape=flexArrow;endArrow=classic;html=1;rounded=0;endWidth=19;endSize=2.44;width=1;fillColor=#1ba1e2;strokeColor=#006EAF;fontStyle=0" edge="1" parent="1">
          <mxGeometry width="50" height="50" relative="1" as="geometry">
            <mxPoint x="-637" y="838.5" as="sourcePoint" />
            <mxPoint x="-637" y="808.5" as="targetPoint" />
          </mxGeometry>
        </mxCell>
        <mxCell id="7KPiV920Xkv_OjgTi7J9-174" value="&lt;font size=&quot;1&quot;&gt;&lt;span&gt;&lt;font style=&quot;font-size: 18px;&quot;&gt;方向序列&lt;/font&gt;&lt;/span&gt;&lt;/font&gt;" style="text;html=1;align=center;verticalAlign=middle;resizable=0;points=[];autosize=1;strokeColor=none;fillColor=none;fontStyle=0" vertex="1" parent="1">
          <mxGeometry x="-768" y="752.5" width="90" height="34" as="geometry" />
        </mxCell>
        <mxCell id="7KPiV920Xkv_OjgTi7J9-175" value="&lt;font size=&quot;1&quot;&gt;&lt;span&gt;&lt;font style=&quot;font-size: 18px;&quot;&gt;标签&lt;/font&gt;&lt;/span&gt;&lt;/font&gt;" style="text;html=1;align=center;verticalAlign=middle;resizable=0;points=[];autosize=1;strokeColor=none;fillColor=none;fontStyle=0" vertex="1" parent="1">
          <mxGeometry x="-932" y="752.5" width="54" height="34" as="geometry" />
        </mxCell>
        <mxCell id="7KPiV920Xkv_OjgTi7J9-176" value="" style="endArrow=classic;html=1;rounded=0;fontStyle=0" edge="1" parent="1">
          <mxGeometry width="50" height="50" relative="1" as="geometry">
            <mxPoint x="-338" y="838.5" as="sourcePoint" />
            <mxPoint x="-56" y="838.5" as="targetPoint" />
          </mxGeometry>
        </mxCell>
        <mxCell id="7KPiV920Xkv_OjgTi7J9-177" value="" style="shape=flexArrow;endArrow=classic;html=1;rounded=0;endWidth=19;endSize=2.44;width=1;fillColor=#1ba1e2;strokeColor=#006EAF;fontStyle=0" edge="1" parent="1">
          <mxGeometry width="50" height="50" relative="1" as="geometry">
            <mxPoint x="-121" y="838.5" as="sourcePoint" />
            <mxPoint x="-121" y="808.5" as="targetPoint" />
          </mxGeometry>
        </mxCell>
        <mxCell id="7KPiV920Xkv_OjgTi7J9-178" value="" style="shape=flexArrow;endArrow=classic;html=1;rounded=0;endWidth=19;endSize=2.44;width=1;fillColor=#1ba1e2;strokeColor=#006EAF;fontStyle=0" edge="1" parent="1">
          <mxGeometry width="50" height="50" relative="1" as="geometry">
            <mxPoint x="-313" y="838.5" as="sourcePoint" />
            <mxPoint x="-313" y="808.5" as="targetPoint" />
          </mxGeometry>
        </mxCell>
        <mxCell id="7KPiV920Xkv_OjgTi7J9-179" value="" style="shape=flexArrow;endArrow=classic;html=1;rounded=0;endWidth=19;endSize=2.44;width=1;fillColor=#1ba1e2;strokeColor=#006EAF;fontStyle=0" edge="1" parent="1">
          <mxGeometry width="50" height="50" relative="1" as="geometry">
            <mxPoint x="-142" y="838.5" as="sourcePoint" />
            <mxPoint x="-142" y="808.5" as="targetPoint" />
          </mxGeometry>
        </mxCell>
        <mxCell id="7KPiV920Xkv_OjgTi7J9-180" value="" style="shape=flexArrow;endArrow=classic;html=1;rounded=0;fillColor=#60a917;strokeColor=#2D7600;endWidth=19;endSize=2.44;width=1;fontStyle=0" edge="1" parent="1">
          <mxGeometry width="50" height="50" relative="1" as="geometry">
            <mxPoint x="-292" y="838.5" as="sourcePoint" />
            <mxPoint x="-292" y="868.5" as="targetPoint" />
          </mxGeometry>
        </mxCell>
        <mxCell id="7KPiV920Xkv_OjgTi7J9-181" value="" style="shape=flexArrow;endArrow=classic;html=1;rounded=0;fillColor=#60a917;strokeColor=#2D7600;endWidth=19;endSize=2.44;width=1;fontStyle=0" edge="1" parent="1">
          <mxGeometry width="50" height="50" relative="1" as="geometry">
            <mxPoint x="-269" y="838.5" as="sourcePoint" />
            <mxPoint x="-269" y="868.5" as="targetPoint" />
          </mxGeometry>
        </mxCell>
        <mxCell id="7KPiV920Xkv_OjgTi7J9-182" value="" style="shape=flexArrow;endArrow=classic;html=1;rounded=0;fillColor=#60a917;strokeColor=#2D7600;endWidth=19;endSize=2.44;width=1;fontStyle=0" edge="1" parent="1">
          <mxGeometry width="50" height="50" relative="1" as="geometry">
            <mxPoint x="-248" y="838.5" as="sourcePoint" />
            <mxPoint x="-248" y="868.5" as="targetPoint" />
          </mxGeometry>
        </mxCell>
        <mxCell id="7KPiV920Xkv_OjgTi7J9-183" value="" style="shape=flexArrow;endArrow=classic;html=1;rounded=0;endWidth=19;endSize=2.44;width=1;fillColor=#1ba1e2;strokeColor=#006EAF;fontStyle=0" edge="1" parent="1">
          <mxGeometry width="50" height="50" relative="1" as="geometry">
            <mxPoint x="-228" y="838.5" as="sourcePoint" />
            <mxPoint x="-228" y="808.5" as="targetPoint" />
          </mxGeometry>
        </mxCell>
        <mxCell id="7KPiV920Xkv_OjgTi7J9-184" value="" style="shape=flexArrow;endArrow=classic;html=1;rounded=0;fillColor=#60a917;strokeColor=#2D7600;endWidth=19;endSize=2.44;width=1;fontStyle=0" edge="1" parent="1">
          <mxGeometry width="50" height="50" relative="1" as="geometry">
            <mxPoint x="-207" y="837.5" as="sourcePoint" />
            <mxPoint x="-207" y="867.5" as="targetPoint" />
          </mxGeometry>
        </mxCell>
        <mxCell id="7KPiV920Xkv_OjgTi7J9-185" value="" style="shape=flexArrow;endArrow=classic;html=1;rounded=0;fillColor=#60a917;strokeColor=#2D7600;endWidth=19;endSize=2.44;width=1;fontStyle=0" edge="1" parent="1">
          <mxGeometry width="50" height="50" relative="1" as="geometry">
            <mxPoint x="-185" y="838.5" as="sourcePoint" />
            <mxPoint x="-185" y="868.5" as="targetPoint" />
          </mxGeometry>
        </mxCell>
        <mxCell id="7KPiV920Xkv_OjgTi7J9-186" value="" style="shape=flexArrow;endArrow=classic;html=1;rounded=0;endWidth=19;endSize=2.44;width=1;fillColor=#1ba1e2;strokeColor=#006EAF;fontStyle=0" edge="1" parent="1">
          <mxGeometry width="50" height="50" relative="1" as="geometry">
            <mxPoint x="-164" y="838.5" as="sourcePoint" />
            <mxPoint x="-164" y="808.5" as="targetPoint" />
          </mxGeometry>
        </mxCell>
        <mxCell id="7KPiV920Xkv_OjgTi7J9-187" value="&lt;font size=&quot;1&quot;&gt;&lt;span&gt;&lt;font style=&quot;font-size: 18px;&quot;&gt;方向序列&lt;/font&gt;&lt;/span&gt;&lt;/font&gt;" style="text;html=1;align=center;verticalAlign=middle;resizable=0;points=[];autosize=1;strokeColor=none;fillColor=none;fontStyle=0" vertex="1" parent="1">
          <mxGeometry x="-252" y="752.5" width="90" height="34" as="geometry" />
        </mxCell>
        <mxCell id="7KPiV920Xkv_OjgTi7J9-188" value="&lt;font size=&quot;1&quot;&gt;&lt;span&gt;&lt;font style=&quot;font-size: 18px;&quot;&gt;标签&lt;/font&gt;&lt;/span&gt;&lt;/font&gt;" style="text;html=1;align=center;verticalAlign=middle;resizable=0;points=[];autosize=1;strokeColor=none;fillColor=none;fontStyle=0" vertex="1" parent="1">
          <mxGeometry x="-416" y="752.5" width="54" height="34" as="geometry" />
        </mxCell>
        <mxCell id="7KPiV920Xkv_OjgTi7J9-189" value="" style="shape=umlDestroy;whiteSpace=wrap;html=1;strokeWidth=3;targetShapes=umlLifeline;fillColor=#e51400;fontColor=#ffffff;strokeColor=#B20000;fontStyle=0" vertex="1" parent="1">
          <mxGeometry x="-771" y="525.5" width="10" height="14" as="geometry" />
        </mxCell>
        <mxCell id="7KPiV920Xkv_OjgTi7J9-190" value="" style="rounded=0;whiteSpace=wrap;html=1;dashed=1;strokeColor=#000000;fontStyle=0" vertex="1" parent="1">
          <mxGeometry x="-840" y="784.5" width="40" height="16" as="geometry" />
        </mxCell>
        <mxCell id="7KPiV920Xkv_OjgTi7J9-191" value="" style="rounded=0;whiteSpace=wrap;html=1;dashed=1;strokeColor=#000000;fontStyle=0" vertex="1" parent="1">
          <mxGeometry x="-624" y="784.5" width="40" height="16" as="geometry" />
        </mxCell>
        <mxCell id="7KPiV920Xkv_OjgTi7J9-192" value="" style="shape=flexArrow;endArrow=classic;html=1;rounded=0;endWidth=19;endSize=2.44;width=1;fontStyle=0" edge="1" parent="1">
          <mxGeometry width="50" height="50" relative="1" as="geometry">
            <mxPoint x="-789" y="792" as="sourcePoint" />
            <mxPoint x="-634" y="792" as="targetPoint" />
          </mxGeometry>
        </mxCell>
        <mxCell id="7KPiV920Xkv_OjgTi7J9-193" value="" style="rounded=0;whiteSpace=wrap;html=1;fillColor=none;" vertex="1" parent="1">
          <mxGeometry x="-942" y="410.5" width="905" height="135" as="geometry" />
        </mxCell>
        <mxCell id="7KPiV920Xkv_OjgTi7J9-194" value="" style="rounded=0;whiteSpace=wrap;html=1;fillColor=none;" vertex="1" parent="1">
          <mxGeometry x="-963.5" y="346" width="948" height="557" as="geometry" />
        </mxCell>
        <mxCell id="7KPiV920Xkv_OjgTi7J9-195" value="" style="shape=flexArrow;endArrow=classic;html=1;rounded=0;endWidth=19;endSize=2.44;width=1;fillColor=#1ba1e2;strokeColor=#006EAF;fontStyle=0" edge="1" parent="1">
          <mxGeometry width="50" height="50" relative="1" as="geometry">
            <mxPoint x="-672.4985714285762" y="388.5" as="sourcePoint" />
            <mxPoint x="-672.4985714285762" y="358.5" as="targetPoint" />
          </mxGeometry>
        </mxCell>
        <mxCell id="7KPiV920Xkv_OjgTi7J9-196" value="" style="shape=flexArrow;endArrow=classic;html=1;rounded=0;fillColor=#60a917;strokeColor=#2D7600;endWidth=19;endSize=2.44;width=1;fontStyle=0" edge="1" parent="1">
          <mxGeometry width="50" height="50" relative="1" as="geometry">
            <mxPoint x="-414.3557142857192" y="358.5" as="sourcePoint" />
            <mxPoint x="-414.3557142857192" y="388.5" as="targetPoint" />
          </mxGeometry>
        </mxCell>
        <mxCell id="7KPiV920Xkv_OjgTi7J9-197" value="&lt;font style=&quot;font-size: 18px;&quot;&gt;传出&lt;/font&gt;" style="text;html=1;align=center;verticalAlign=middle;resizable=0;points=[];autosize=1;strokeColor=none;fillColor=none;fontStyle=0" vertex="1" parent="1">
          <mxGeometry x="-644.5" y="357.5" width="54" height="34" as="geometry" />
        </mxCell>
        <mxCell id="7KPiV920Xkv_OjgTi7J9-198" value="&lt;font style=&quot;font-size: 18px;&quot;&gt;传入&lt;/font&gt;" style="text;html=1;align=center;verticalAlign=middle;resizable=0;points=[];autosize=1;strokeColor=none;fillColor=none;fontStyle=0" vertex="1" parent="1">
          <mxGeometry x="-383.5" y="357.5" width="54" height="34" as="geometry" />
        </mxCell>
        <mxCell id="7KPiV920Xkv_OjgTi7J9-199" value="" style="rounded=0;whiteSpace=wrap;html=1;fillColor=none;" vertex="1" parent="1">
          <mxGeometry x="-942" y="580.5" width="905" height="131" as="geometry" />
        </mxCell>
        <mxCell id="7KPiV920Xkv_OjgTi7J9-200" value="" style="rounded=0;whiteSpace=wrap;html=1;fillColor=none;" vertex="1" parent="1">
          <mxGeometry x="-942" y="753" width="905" height="134" as="geometry" />
        </mxCell>
        <mxCell id="7KPiV920Xkv_OjgTi7J9-201" value="&lt;div style=&quot;font-size: 17px;&quot;&gt;&lt;font style=&quot;font-size: 17px;&quot;&gt;&lt;span&gt;&lt;font style=&quot;font-size: 17px;&quot;&gt;0&lt;/font&gt;&lt;/span&gt;&lt;/font&gt;&lt;/div&gt;&lt;div style=&quot;font-size: 17px;&quot;&gt;&lt;font style=&quot;font-size: 17px;&quot;&gt;&lt;span&gt;&lt;font style=&quot;font-size: 17px;&quot;&gt;0&lt;br&gt;&lt;/font&gt;&lt;/span&gt;&lt;/font&gt;&lt;/div&gt;&lt;div style=&quot;font-size: 17px;&quot;&gt;&lt;font style=&quot;font-size: 17px;&quot;&gt;&lt;span&gt;&lt;font style=&quot;font-size: 17px;&quot;&gt;1&lt;/font&gt;&lt;/span&gt;&lt;/font&gt;&lt;/div&gt;&lt;div style=&quot;font-size: 17px;&quot;&gt;&lt;font style=&quot;font-size: 17px;&quot;&gt;&lt;span&gt;&lt;font style=&quot;font-size: 17px;&quot;&gt;&lt;font style=&quot;font-size: 17px;&quot;&gt;0&lt;/font&gt;&lt;br&gt;&lt;/font&gt;&lt;/span&gt;&lt;/font&gt;&lt;/div&gt;" style="rounded=0;whiteSpace=wrap;html=1;fontStyle=0" vertex="1" parent="1">
          <mxGeometry x="-922.5" y="615.5" width="34" height="90" as="geometry" />
        </mxCell>
        <mxCell id="7KPiV920Xkv_OjgTi7J9-202" value="&lt;div style=&quot;font-size: 17px;&quot;&gt;&lt;font style=&quot;font-size: 17px;&quot;&gt;&lt;span&gt;&lt;font style=&quot;font-size: 17px;&quot;&gt;0&lt;/font&gt;&lt;/span&gt;&lt;/font&gt;&lt;/div&gt;&lt;div style=&quot;font-size: 17px;&quot;&gt;&lt;font style=&quot;font-size: 17px;&quot;&gt;&lt;span&gt;&lt;font style=&quot;font-size: 17px;&quot;&gt;0&lt;br&gt;&lt;/font&gt;&lt;/span&gt;&lt;/font&gt;&lt;/div&gt;&lt;div style=&quot;font-size: 17px;&quot;&gt;&lt;font style=&quot;font-size: 17px;&quot;&gt;&lt;span&gt;&lt;font style=&quot;font-size: 17px;&quot;&gt;1&lt;/font&gt;&lt;/span&gt;&lt;/font&gt;&lt;/div&gt;&lt;div style=&quot;font-size: 17px;&quot;&gt;&lt;font style=&quot;font-size: 17px;&quot;&gt;&lt;span&gt;&lt;font style=&quot;font-size: 17px;&quot;&gt;&lt;font style=&quot;font-size: 17px;&quot;&gt;0&lt;/font&gt;&lt;br&gt;&lt;/font&gt;&lt;/span&gt;&lt;/font&gt;&lt;/div&gt;" style="rounded=0;whiteSpace=wrap;html=1;fontStyle=0" vertex="1" parent="1">
          <mxGeometry x="-406.5" y="789.5" width="34" height="90" as="geometry" />
        </mxCell>
      </root>
    </mxGraphModel>
  </diagram>
</mxfile>
